# xmcd
#
# Track frame offsets:
#	150
#	19457
#	36535
#
# Disc length: 755 seconds
#
# Revision: 0
# Processed by: cddbd v1.5.2PL0 Copyright (c) Steve Scherf et al.
# Submitted via: EasyCDDAExtractor 15.2.0.1
#
DISCID=2502f103
DTITLE=Arlene Kotala and Petri Lehtinen - Hyväntekeväisyys CD
DYEAR=2003
DGENRE=Pop
TTITLE0=Omana itsenä
TTITLE1=Majakka
TTITLE2=MON GARS
EXTD=
EXTT0=
EXTT1=
EXTT2=
PLAYORDER=
